#!OML:ASF H:\Terrain\Patient Classification 1\PLAYGROUND\JustinFriday\JustinFriday.ASF
:FULLY-SPECIFIED
:DEGREES
2144
root 6.9516 15.9004 -12.8393 350.104 13.2484 -4.73588
lowerback 35.122 -1.70609 -2.73746
upperback 7.91975 -2.78466 1.88657
thorax -8.76666 -1.25411 4.50081
lowerneck -6.73709 -1.60122 -10.6022
upperneck 9.91883 -2.15724 10.8024
head 4.2816 -0.881879 4.97994
rclavicle -1.88845e-014 9.93923e-015
rhumerus 47.5377 -9.95356 -71.4062
rradius 99.7066
rwrist 13.882
rhand 0.344536 -30.4614
rfingers 7.12502
rthumb 25.9203 -418.714
lclavicle -1.88845e-014 9.93923e-015
lhumerus 54.0631 11.2543 62.1859
lradius 83.664
lwrist -16.2577
lhand 4.26074 -3.67289
lfingers 7.12502
lthumb 29.6646 23.9746
rfemur -34.8136 4.52925 28.3354
rtibia 59.77
rfoot -13.0247 9.46721
rtoes 20.5125
lfemur -39.9372 4.4088 -7.80358
ltibia 38.3174
lfoot -15.5474 -0.744937
ltoes -12.5905
2145
root 6.99378 15.7608 -12.889 349.824 13.1151 -4.6263
lowerback 35.3384 -1.74426 -3.01772
upperback 8.17646 -2.91188 2.06584
thorax -8.53164 -1.32491 4.8842
lowerneck -6.60419 -1.51858 -11.5107
upperneck 10.2867 -1.97086 10.7221
head 4.35761 -0.832825 5.12343
rclavicle 8.74653e-015 5.1684e-015
rhumerus 49.3682 -9.83145 -70.753
rradius 98.3765
rwrist 11.3961
rhand -3.20408 -30.6901
rfingers 7.12502
rthumb 22.5181 -419.397
lclavicle 8.74653e-015 5.1684e-015
lhumerus 55.5328 11.9813 63.1891
lradius 83.1311
lwrist -17.07
lhand 4.32063 -3.58437
lfingers 7.12502
lthumb 29.7218 24.0529
rfemur -35.7722 4.18865 28.1553
rtibia 61.6354
rfoot -13.5764 9.69493
rtoes 20.077
lfemur -40.8534 4.84046 -8.39924
ltibia 37.8124
lfoot -15.1786 -1.31134
ltoes -12.7032
2146
root 7.03849 15.6204 -12.9308 349.61 12.8031 -4.57394
lowerback 36.0229 -1.83774 -2.81743
upperback 7.94596 -2.98793 1.95365
thorax -8.91886 -1.34729 4.70667
lowerneck -6.21053 -1.46112 -12.1547
upperneck 10.78 -1.90719 10.8449
head 4.43899 -0.832545 5.28266
rclavicle 4.01545e-014 -3.45885e-014
rhumerus 50.4836 -10.1401 -70.7234
rradius 97.5071
rwrist 10.3367
rhand -3.87445 -30.5133
rfingers 7.12502
rthumb 21.8745 -419.297
lclavicle 4.01545e-014 -3.45885e-014
lhumerus 56.6765 12.159 63.8721
lradius 82.666
lwrist -17.6488
lhand 4.08551 -3.38229
lfingers 7.12502
lthumb 29.4973 24.2948
rfemur -36.783 4.06049 28.0254
rtibia 63.573
rfoot -13.6974 10.1105
rtoes 20.7075
lfemur -41.8872 5.34921 -8.85467
ltibia 37.5372
lfoot -14.9684 -1.88387
ltoes -13.2567
2147
root 7.08437 15.4645 -12.9634 349.209 12.5139 -5.04637
lowerback 36.4569 -2.11906 -2.14537
upperback 8.04562 -3.10781 1.88801
thorax -8.98816 -1.40977 4.33725
lowerneck -6.29318 -1.46016 -13.023
upperneck 11.3388 -1.89488 11.3566
head 4.63148 -0.835508 5.60592
rclavicle 4.03533e-014 -1.66979e-014
rhumerus 51.8618 -10.6364 -70.9904
rradius 96.6658
rwrist 9.96766
rhand -3.66968 -30.0359
rfingers 7.12502
rthumb 22.0711 -418.796
lclavicle 4.03533e-014 -1.66979e-014
lhumerus 57.9842 12.5169 64.3575
lradius 82.0737
lwrist -18.2627
lhand 3.68888 -3.69278
lfingers 7.12502
lthumb 29.1186 24.0505
rfemur -37.7491 3.94953 28.4086
rtibia 65.5574
rfoot -13.3706 10.6947
rtoes 22.9511
lfemur -42.915 5.70946 -8.68388
ltibia 37.3958
lfoot -14.6794 -2.64367
ltoes -13.4483
2148
root 7.13292 15.3158 -12.992 348.775 12.2375 -5.77278
lowerback 36.9752 -2.53427 -0.739036
upperback 7.92198 -3.1378 1.63746
thorax -9.3825 -1.42599 3.36417
lowerneck -5.67445 -1.43985 -13.2866
upperneck 11.5207 -1.93659 11.4626
head 4.58882 -0.87942 5.68556
rclavicle -1.17283e-014 1.98785e-015
rhumerus 52.6888 -11.5539 -71.1575
rradius 95.6857
rwrist 9.7116
rhand -4.06572 -29.1268
rfingers 7.12502
rthumb 21.6908 -417.932
lclavicle -1.17283e-014 1.98785e-015
lhumerus 59.2453 12.2475 64.626
lradius 81.2365
lwrist -18.7042
lhand 3.17609 -4.31684
lfingers 7.12502
lthumb 28.6288 23.5101
rfemur -38.8528 3.55747 29.1202
rtibia 67.4911
rfoot -12.9828 11.2252
rtoes 24.6984
lfemur -43.8923 5.99112 -8.25286
ltibia 37.28
lfoot -14.5402 -3.55312
ltoes -13.3284
2149
root 7.18509 15.1754 -13.0121 348.558 12.0833 -5.91605
lowerback 36.5711 -2.51083 -1.66701
upperback 8.43891 -3.36995 2.36248
thorax -8.57233 -1.56325 4.68013
lowerneck -5.77692 -1.20217 -14.2316
upperneck 11.495 -1.44228 10.9673
head 4.54308 -0.701601 5.71091
rclavicle -5.52621e-014 3.1408e-014
rhumerus 55.2258 -11.0383 -70.9146
rradius 94.454
rwrist 9.25628
rhand -4.80685 -28.2044
rfingers 7.12502
rthumb 20.979 -417.09
lclavicle -5.52621e-014 3.1408e-014
lhumerus 60.4291 13.9133 65.7055
lradius 80.4423
lwrist -19.2253
lhand 2.64142 -4.83214
lfingers 7.12502
lthumb 28.1179 23.0799
rfemur -40.12 2.90847 29.2212
rtibia 69.511
rfoot -12.8886 11.737
rtoes 24.4464
lfemur -44.8284 6.19294 -8.53262
ltibia 37.1734
lfoot -14.8254 -4.36957
ltoes -13.7105
2150
root 7.23429 15.0286 -13.0213 348.25 12.0753 -5.82062
lowerback 36.746 -2.64007 -1.73501
upperback 8.512 -3.55087 2.41046
thorax -8.53237 -1.65083 4.83866
lowerneck -5.49928 -1.12225 -15.0265
upperneck 11.7162 -1.31988 11.1201
head 4.55333 -0.677675 5.90524
rclavicle -6.63941e-014 5.68524e-014
rhumerus 56.5945 -11.3394 -70.8387
rradius 93.343
rwrist 8.68204
rhand -4.67924 -27.9588
rfingers 7.12502
rthumb 21.1016 -416.831
lclavicle -6.63941e-014 5.68524e-014
lhumerus 61.4459 14.3235 66.241
lradius 79.7198
lwrist -19.6249
lhand 2.07015 -5.13873
lfingers 7.12502
lthumb 27.5717 22.8618
rfemur -41.2323 2.2349 29.0316
rtibia 71.6781
rfoot -12.6139 12.3456
rtoes 22.6558
lfemur -45.5537 6.32415 -9.08727
ltibia 37.1205
lfoot -13.8122 -5.13632
ltoes -16.4586
2151
root 7.28022 14.8844 -13.034 347.846 11.8689 -5.9242
lowerback 36.7368 -2.75445 -1.56708
upperback 8.8451 -3.63145 2.41954
thorax -8.1606 -1.70581 4.77457
lowerneck -5.45492 -1.03521 -15.6365
upperneck 11.7239 -1.16809 11.2996
head 4.53196 -0.621223 6.07536
rclavicle 4.21423e-014 -1.98785e-014
rhumerus 58.1637 -11.8262 -70.7945
rradius 92.2712
rwrist 8.30291
rhand -3.65517 -28.1019
rfingers 7.12502
rthumb 22.0851 -416.861
lclavicle 4.21423e-014 -1.98785e-014
lhumerus 63.0319 14.7648 66.8241
lradius 78.9462
lwrist -20.0796
lhand 1.83792 -5.17066
lfingers 7.12502
lthumb 27.3496 22.8651
rfemur -42.372 1.80125 29.0857
rtibia 73.9354
rfoot -11.6268 13.0081
rtoes 20.3458
lfemur -46.1346 6.44172 -9.23379
ltibia 37.1781
lfoot -14.2402 -6.0122
ltoes -15.7564
2152
root 7.33141 14.7427 -13.0463 347.619 11.429 -5.96467
lowerback 36.6577 -2.77425 -1.52898
upperback 9.01879 -3.646 2.43165
thorax -7.94045 -1.72382 4.76207
lowerneck -5.33111 -0.899431 -16.3007
upperneck 11.9016 -0.9766 11.5649
head 4.54135 -0.548415 6.28843
rclavicle -6.2816e-014 5.1684e-014
rhumerus 59.5934 -12.1887 -70.5984
rradius 90.9881
rwrist 8.03213
rhand -3.24416 -27.9032
rfingers 7.12502
rthumb 22.4796 -416.615
lclavicle -6.2816e-014 5.1684e-014
lhumerus 64.4972 15.2295 67.1513
lradius 78.0883
lwrist -20.3491
lhand 2.17823 -5.02748
lfingers 7.12502
lthumb 27.675 22.9565
rfemur -43.8959 1.56235 29.0529
rtibia 76.3162
rfoot -10.1613 13.7782
rtoes 21.4584
lfemur -46.811 6.42608 -9.21975
ltibia 37.4655
lfoot -13.1755 -6.32437
ltoes -19.3967
2153
root 7.38794 14.5898 -13.0446 347.365 11.0602 -6.11255
lowerback 36.6002 -2.82098 -1.45471
upperback 9.0427 -3.67344 2.52015
thorax -7.89095 -1.7427 4.82484
lowerneck -4.97832 -0.76735 -16.7868
upperneck 12.3593 -0.830541 11.5815
head 4.6017 -0.516104 6.39184
rclavicle -2.78299e-015 -2.98177e-014
rhumerus 60.792 -12.4057 -70.3167
rradius 89.5949
rwrist 7.5232
rhand -3.20049 -27.682
rfingers 7.12502
rthumb 22.5215 -416.389
lclavicle -2.78299e-015 -2.98177e-014
lhumerus 65.4171 15.7151 66.8712
lradius 77.302
lwrist -19.9504
lhand 2.69302 -4.63755
lfingers 7.12502
lthumb 28.1672 23.2664
rfemur -45.577 1.21754 29.0611
rtibia 78.7831
rfoot -8.35405 14.601
rtoes 25.2516
lfemur -47.5208 6.38376 -9.13197
ltibia 37.9772
lfoot -13.1004 -7.14711
ltoes -18.2937
